<svg xmlns="http://www.w3.org/2000/svg" viewBox="0 0 64 64" role="img" aria-label="Location Benne Occitanie">
  <defs>
    <linearGradient id="g" x1="0" y1="0" x2="1" y2="1">
      <stop offset="0" stop-color="#34d399" />
      <stop offset="1" stop-color="#047857" />
    </linearGradient>
  </defs>
  <rect width="64" height="64" rx="16" fill="url(#g)" />
  <path
    d="M22 18h17c5 0 9 3 9 8 0 3-1 5-3 6 3 1 5 4 5 8 0 6-5 10-12 10H22V18zm8 8v7h7c2 0 3-1 3-3s-1-4-4-4h-6zm0 14v8h8c3 0 5-2 5-4s-2-4-5-4h-8z"
    fill="#fff"
  />
</svg>

